<?xml version="1.0" encoding="utf-8"?>
<!-- Generator: Adobe Illustrator 13.0.0, SVG Export Plug-In . SVG Version: 6.00 Build 14948)  -->
<!DOCTYPE svg PUBLIC "-//W3C//DTD SVG 1.1//EN" "http://www.w3.org/Graphics/SVG/1.1/DTD/svg11.dtd">
<svg version="1.1" id="Capa_1" xmlns="http://www.w3.org/2000/svg" xmlns:xlink="http://www.w3.org/1999/xlink" x="0px" y="0px"
	 width="793.7px" height="793.7px" viewBox="0 0 793.7 793.7" enable-background="new 0 0 793.7 793.7" xml:space="preserve">
<rect fill="none" width="793.7" height="793.7"/>
<path fill-rule="evenodd" clip-rule="evenodd" d="M424.101,78.672c0-39.865-31.097-70.417-71.666-70.417
	c-39.215,0-71.646,30.552-71.646,70.417c0,38.5,32.431,70.397,71.646,70.397C393.004,149.069,424.101,117.172,424.101,78.672
	 M514.351,434.965h66.484c29.091,0,52.006,15.119,56.582,40.54l30.365,169.161c0.873,4.854,3.505,7.798,8.323,8.712l51.198,9.708
	c5.729,1.075,9.231,5.052,9.758,9.189l2.632,21.007c0.851,6.842-4.413,12.89-10.871,13.685L614.765,721.29
	c-15.73,1.989-21.863-4.177-25.043-17.348l-40.672-169.04C544.84,498.421,532.692,464.644,514.351,434.965 M70.426,562.272
	c0-79.846,42.048-150.054,105.577-190.375l-12.45-50.197c-4.596-18.43-7.067-38.721,13.036-58.523l77.761-76.464
	c13.948-13.726,25.547-18.33,52.352-14.729l64.783,8.742c21.762,2.914,39.6,20.161,42.775,42.142l18.972,131.385
	c-38.345-23.611-83.713-37.257-132.3-37.257c-7.569,0-15.042,0.348-22.43,0.995l-4.555-37.357l-1.134-7.779
	c-0.709-4.912-7.167-5.558-10.244-2.564l-35.691,34.969c-3.949,3.879-4.96,8.723-3.746,14.103l6.256,27.532
	c22.511-7.231,46.562-11.121,71.544-11.121c127.319,0,230.527,101.42,230.527,226.499c0,125.082-103.208,226.49-230.527,226.49
	C173.632,788.763,70.426,687.354,70.426,562.272 M459.75,532.912l-110.17,9.071c-26.925,2.229-45.126-11.377-48.223-36.76
	l-12.368-101.279c3.945-0.279,7.934-0.419,11.942-0.419C379.986,403.525,445.742,459.273,459.75,532.912 M118.669,562.272
	c0-57.129,27.25-108.012,69.662-140.833l2.834,11.457c2.105,8.472,7.167,10.741,12.693,9.389l33.992-8.354
	c7.044-1.711,10.062-5.37,7.733-15.645l-5.648-24.825c19.07-6.645,39.599-10.265,60.997-10.265
	c100.676,0,182.264,80.175,182.264,179.076c0,98.904-81.588,179.108-182.264,179.108
	C200.276,741.381,118.669,661.177,118.669,562.272"/>
</svg>
