<?xml version="1.0" ?><!DOCTYPE svg  PUBLIC '-//W3C//DTD SVG 1.1//EN'  'http://www.w3.org/Graphics/SVG/1.1/DTD/svg11.dtd'><svg xmlns="http://www.w3.org/2000/svg" xmlns:xlink="http://www.w3.org/1999/xlink" xmlns:serif="http://www.serif.com/" width="100%" height="100%" viewBox="0 0 64 64" version="1.1" xml:space="preserve" style="fill-rule:evenodd;clip-rule:evenodd;stroke-linejoin:round;stroke-miterlimit:2;"><g><g transform="matrix(0.97561,0,0,1,-7.5122,-6)"><path d="M40.5,7C28.068,7 17.95,17.068 17.95,29.5C17.95,33.193 19.873,37.688 22.684,42.128C28.835,51.845 39.081,61.443 39.081,61.443C39.874,62.186 41.126,62.186 41.919,61.443C41.919,61.443 52.165,51.845 58.316,42.128C61.127,37.688 63.05,33.193 63.05,29.5C63.05,17.068 52.932,7 40.5,7ZM40.5,11C50.697,11 58.95,19.303 58.95,29.5C58.95,33.703 55.778,39.019 52.123,43.952C47.895,49.659 42.896,54.811 40.5,57.181C38.104,54.811 33.105,49.659 28.877,43.952C25.222,39.019 22.05,33.703 22.05,29.5C22.05,19.303 30.303,11 40.5,11Z"/></g><g transform="matrix(1.17647,0,0,1.17647,-7.41176,-2.29412)"><path d="M33.5,11.3C30.685,11.3 28.135,12.442 26.289,14.289C24.442,16.135 23.3,18.685 23.3,21.5C23.3,27.13 27.87,31.7 33.5,31.7C39.13,31.7 43.7,27.13 43.7,21.5C43.7,15.87 39.13,11.3 33.5,11.3ZM33.5,14.7C37.253,14.7 40.3,17.747 40.3,21.5C40.3,25.253 37.253,28.3 33.5,28.3C29.747,28.3 26.7,25.253 26.7,21.5C26.7,19.624 27.462,17.924 28.693,16.693C29.924,15.462 31.624,14.7 33.5,14.7Z"/></g><g transform="matrix(1.03571,0,0,1.08333,-1.14286,-5.08333)"><path d="M57.916,54.594C57.834,54.679 57.734,54.774 57.644,54.842C57.239,55.146 56.704,55.435 56.062,55.719C51.553,57.713 42.461,59.154 32,59.154C21.539,59.154 12.447,57.713 7.938,55.719C7.296,55.435 6.761,55.146 6.356,54.842C6.266,54.774 6.166,54.679 6.084,54.594C6.313,54.432 6.706,54.171 7.071,54.012C9.15,53.104 12.625,52.413 16.978,51.802C18.033,51.654 18.764,50.716 18.609,49.708C18.454,48.7 17.473,48.001 16.418,48.149C10.703,48.95 6.363,49.992 4.261,51.271C2.712,52.213 2.069,53.38 2.069,54.538C2.069,55.33 2.367,56.142 3.054,56.914C3.708,57.649 4.801,58.4 6.317,59.07C11.132,61.2 20.826,62.846 32,62.846C43.174,62.846 52.868,61.2 57.683,59.07C59.199,58.4 60.292,57.649 60.946,56.914C61.633,56.142 61.931,55.33 61.931,54.538C61.931,53.385 61.295,52.226 59.763,51.287C57.69,50.017 53.41,48.979 47.762,48.174C46.708,48.024 45.724,48.72 45.567,49.728C45.41,50.736 46.138,51.676 47.192,51.826C51.487,52.438 54.911,53.125 56.957,54.027C57.31,54.182 57.691,54.435 57.916,54.594Z"/></g></g></svg>