<?xml version="1.0" ?><svg id="Layer_1" style="enable-background:new 0 0 128 128;" version="1.1" viewBox="0 0 128 128" xml:space="preserve" xmlns="http://www.w3.org/2000/svg" xmlns:xlink="http://www.w3.org/1999/xlink"><g><path d="M86,77c-5.51,0-10-4.49-10-10s4.49-10,10-10s10,4.49,10,10S91.51,77,86,77z M86,63c-2.21,0-4,1.79-4,4s1.79,4,4,4   s4-1.79,4-4S88.21,63,86,63z"/></g><g><path d="M44,27c-7.17,0-13-5.83-13-13S36.83,1,44,1s13,5.83,13,13S51.17,27,44,27z M44,7c-3.86,0-7,3.14-7,7s3.14,7,7,7s7-3.14,7-7   S47.86,7,44,7z"/></g><path d="M105.95,107.46l-1.76-9.67c-1.58-8.67-8.52-15.22-17.27-16.28c-10.71-1.3-18.97-9.7-20.08-20.42l-1.09-10.43  C64.58,39.45,55.21,31,43.94,31C31.84,31,22,40.84,22,52.94V77c0,3.91,2.51,7.25,6,8.49V95c0,3.31,2.69,6,6,6h0.22l1.79,23.23  C36.13,125.8,37.44,127,39,127c0.08,0,0.16,0,0.23-0.01c1.65-0.13,2.89-1.57,2.76-3.22L40.24,101h7.52l-1.75,22.77  c-0.13,1.65,1.11,3.09,2.76,3.22C48.85,127,48.93,127,49,127c1.55,0,2.87-1.2,2.99-2.77L53.78,101H54c3.31,0,6-2.69,6-6V78  c0-1.66-1.34-3-3-3s-3,1.34-3,3v17H34V83c0-1.66-1.34-3-3-3c-1.65,0-3-1.35-3-3V52.94C28,44.15,35.15,37,43.94,37  c8.19,0,15,6.14,15.85,14.28l1.09,10.43c0.9,8.62,5.46,16.03,12.13,20.71V98c0,3.62,1.49,6.9,3.89,9.26l1.12,16.93  c0.1,1.59,1.42,2.81,2.99,2.81c0.06,0,0.13,0,0.19-0.01c1.65-0.1,2.91-1.53,2.81-3.18l-0.82-13.13c0.91,0.2,1.85,0.32,2.83,0.32  h2.81l-0.8,12.81c-0.1,1.65,1.15,3.08,2.81,3.18c0.06,0,0.13,0.01,0.19,0.01c1.57,0,2.89-1.22,2.99-2.81l1-16  c0.05-0.83-0.24-1.64-0.81-2.24S92.83,105,92,105h-6c-3.86,0-7-3.14-7-7V85.66c2.27,0.89,4.68,1.51,7.2,1.81  c6.13,0.74,10.99,5.32,12.09,11.39l1.76,9.67c0.26,1.45,1.53,2.46,2.95,2.46c0.18,0,0.36-0.02,0.54-0.05  C105.17,110.66,106.25,109.09,105.95,107.46z"/></svg>